<svg width="283" height="66" viewBox="0 0 283 66" fill="none" xmlns="http://www.w3.org/2000/svg">
<path d="M111.548 63.8962C110.441 63.8962 109.379 63.8962 108.292 63.8962C108.648 61.8941 108.979 59.9237 109.347 57.9534C109.583 56.6822 109.799 55.3538 110.104 54.1335C110.81 50.6695 114.289 47.0402 117.838 46.8369C120.586 46.678 122.831 47.2881 124.058 49.5381C124.605 50.5424 125.101 51.7945 124.955 52.9703C124.516 56.5487 123.759 60.1462 123.111 63.8326C122.017 63.8326 120.974 63.8326 119.778 63.8326C119.931 62.9619 120.083 62.0847 120.242 61.2076C120.617 59.072 120.999 56.9364 121.374 54.8008C121.819 52.2521 120.592 50.5424 118.264 50.4915C115.727 50.4343 113.71 52.0741 113.189 54.7309C112.642 57.5402 112.184 60.3559 111.688 63.1652C111.637 63.3813 111.593 63.5847 111.548 63.8962Z" fill="#5BA646"/>
<path d="M136.212 63.8708C136.791 60.5975 137.465 57.3241 137.917 54.0572C138.495 49.8814 135.214 46.5127 130.971 46.8369C129.013 46.9894 127.225 47.8284 125.724 49.2966C126.132 50.339 126.488 51.2606 126.914 52.3602C127.372 52.0869 127.715 51.8708 127.989 51.7119C129.636 50.6695 131.188 50.3644 132.606 51.0953C134.005 51.8136 134.52 53.161 134.177 54.9089C133.814 56.7585 133.515 58.608 133.191 60.4576C132.994 61.5826 132.79 62.7203 132.587 63.8898H136.206C136.206 63.8898 136.212 63.8771 136.212 63.8708Z" fill="#18335F"/>
<path d="M136.107 42.888C137.827 41.314 138.15 38.8691 136.829 37.4271C135.508 35.9851 133.042 36.0921 131.322 37.6661C129.602 39.2401 129.279 41.6851 130.6 43.1271C131.921 44.569 134.386 44.462 136.107 42.888Z" fill="#18335F"/>
<path d="M122.332 42.8893C124.052 41.3153 124.375 38.8704 123.054 37.4284C121.733 35.9864 119.267 36.0935 117.547 37.6675C115.827 39.2415 115.504 41.6864 116.825 43.1284C118.146 44.5704 120.611 44.4633 122.332 42.8893Z" fill="#5BA646"/>
<path d="M87.8634 58.3856C87.768 58.9131 87.539 59.4852 87.1702 60.0953C86.8013 60.7119 86.2861 61.3093 85.6247 61.9004C84.9632 62.4915 84.1682 62.9746 83.2333 63.3432C82.2984 63.7119 81.2554 63.8962 80.1042 63.8962C79.2265 63.8962 78.4506 63.8135 77.7637 63.6483C77.0768 63.483 76.4726 63.2224 75.9511 62.8729C75.4296 62.5233 74.9717 62.0593 74.5837 61.4873C74.2403 60.9661 73.9668 60.3877 73.7696 59.7394C73.5725 59.0974 73.4644 58.4046 73.4389 57.6801C73.4135 56.9491 73.4707 56.1737 73.617 55.3538C73.8523 54.0191 74.2594 52.8241 74.8318 51.7691C75.4042 50.714 76.1228 49.8114 76.9751 49.0614C77.8337 48.3114 78.7813 47.7394 79.8244 47.3517C80.8674 46.9576 81.9359 46.7669 83.0362 46.7669C84.3781 46.7669 85.5229 47.0339 86.4769 47.5678C87.4309 48.1017 88.1178 48.7627 88.5376 49.5508C88.9573 50.339 89.1036 51.0826 88.9828 51.7818C88.9128 52.1631 88.722 52.5063 88.3976 52.7987C88.0733 53.0911 87.7235 53.2373 87.3355 53.2373C86.903 53.2373 86.6041 53.1356 86.4197 52.9322C86.2416 52.7288 86.0635 52.3792 85.8854 51.8835C85.5929 51.0635 85.1858 50.447 84.6643 50.0402C84.1428 49.6335 83.4496 49.4301 82.5846 49.4301C81.2045 49.4301 80.0152 49.9513 79.0103 51C78.0054 52.0487 77.3376 53.536 76.9942 55.4619C76.7652 56.7521 76.7588 57.8199 76.9687 58.678C77.1786 59.536 77.5793 60.1716 78.1708 60.5911C78.7622 61.0106 79.5 61.2267 80.3904 61.2267C81.3571 61.2267 82.2157 60.9852 82.9662 60.5085C83.7167 60.0318 84.3463 59.3263 84.8488 58.3983C85.0714 57.9597 85.3067 57.6038 85.5674 57.3305C85.8282 57.0572 86.1907 56.9174 86.655 56.9174C87.0557 56.9174 87.3737 57.0572 87.609 57.3369C87.857 57.6229 87.9397 57.9661 87.8634 58.3856Z" fill="#5BA646"/>
<path d="M100.227 46.7669C101.944 46.7669 103.363 47.1165 104.469 47.8093C105.576 48.5085 106.339 49.5 106.746 50.7839C107.153 52.0678 107.204 53.5741 106.899 55.3093C106.67 56.5932 106.295 57.7563 105.76 58.7987C105.226 59.8411 104.546 60.7563 103.719 61.5254C102.892 62.2945 101.932 62.8792 100.851 63.286C99.7693 63.6928 98.5736 63.8962 97.2698 63.8962C95.9724 63.8962 94.8467 63.6864 93.899 63.2669C92.945 62.8475 92.1946 62.2563 91.6412 61.5C91.0879 60.7436 90.7318 59.822 90.5728 58.7542C90.4138 57.6864 90.4392 56.5297 90.6618 55.2839C90.8844 54.0127 91.2724 52.8432 91.8257 51.7818C92.379 50.7203 93.0659 49.8178 93.8927 49.0678C94.7195 48.3178 95.6608 47.7521 96.7292 47.358C97.7977 46.964 98.9616 46.7669 100.227 46.7669ZM103.496 55.2839C103.713 54.0699 103.7 53.0212 103.464 52.1313C103.229 51.2415 102.79 50.5678 102.142 50.1165C101.493 49.6652 100.698 49.4301 99.7566 49.4301C99.0888 49.4301 98.4464 49.5572 97.8295 49.8114C97.219 50.0657 96.6593 50.428 96.1632 50.911C95.6671 51.3941 95.2346 52.0106 94.8658 52.7606C94.4969 53.5106 94.2298 54.3496 94.0644 55.2839C93.899 56.2246 93.8672 57.0763 93.969 57.839C94.0708 58.6017 94.2934 59.2309 94.6432 59.733C94.9866 60.2352 95.4191 60.6102 95.9406 60.858C96.4558 61.1059 97.0536 61.233 97.7214 61.233C98.58 61.233 99.4068 61.0169 100.202 60.5911C100.997 60.1652 101.69 59.4979 102.269 58.6017C102.86 57.6991 103.267 56.5996 103.496 55.2839Z" fill="#5BA646"/>
<path d="M153.028 49.6335H145.46L144.741 53.7013H151.705C152.22 53.7013 152.583 53.8157 152.793 54.0445C153.003 54.2733 153.079 54.5784 153.009 54.9534C152.939 55.3284 152.761 55.6398 152.475 55.875C152.182 56.1102 151.781 56.2309 151.26 56.2309H144.296L143.463 60.9407H151.285C151.813 60.9407 152.188 61.0614 152.411 61.3093C152.634 61.5572 152.71 61.8813 152.64 62.2881C152.57 62.6822 152.379 63 152.068 63.2415C151.756 63.4894 151.336 63.6102 150.808 63.6102H141.682C140.95 63.6102 140.454 63.4513 140.187 63.1271C139.926 62.803 139.856 62.2818 139.984 61.5572L142.178 49.1059C142.26 48.6229 142.407 48.2288 142.604 47.9237C142.801 47.6186 143.062 47.3962 143.393 47.2563C143.723 47.1165 144.124 47.0466 144.601 47.0466H153.467C154.001 47.0466 154.376 47.1674 154.599 47.4025C154.815 47.6377 154.891 47.9491 154.821 48.3369C154.752 48.7309 154.567 49.0424 154.262 49.2775C153.957 49.5127 153.562 49.6335 153.028 49.6335Z" fill="#5BA646"/>
<path d="M170.13 58.3856C170.035 58.9131 169.806 59.4852 169.437 60.0953C169.068 60.7119 168.553 61.3093 167.891 61.9004C167.23 62.4915 166.435 62.9746 165.5 63.3432C164.565 63.7119 163.522 63.8962 162.371 63.8962C161.493 63.8962 160.717 63.8135 160.03 63.6483C159.343 63.483 158.739 63.2224 158.218 62.8729C157.696 62.5233 157.238 62.0593 156.85 61.4873C156.507 60.9661 156.233 60.3877 156.036 59.7394C155.839 59.0974 155.731 58.4046 155.706 57.6801C155.68 56.9491 155.737 56.1737 155.884 55.3538C156.119 54.0191 156.526 52.8241 157.098 51.7691C157.671 50.714 158.389 49.8114 159.242 49.0614C160.094 48.3114 161.048 47.7394 162.091 47.3517C163.134 46.9576 164.202 46.7669 165.303 46.7669C166.645 46.7669 167.79 47.0339 168.744 47.5678C169.698 48.1017 170.384 48.7627 170.804 49.5508C171.224 50.339 171.37 51.0826 171.249 51.7818C171.179 52.1631 170.989 52.5063 170.664 52.7987C170.34 53.0911 169.99 53.2373 169.602 53.2373C169.17 53.2373 168.871 53.1356 168.686 52.9322C168.508 52.7288 168.33 52.3792 168.152 51.8835C167.859 51.0635 167.452 50.447 166.931 50.0402C166.409 49.6335 165.716 49.4301 164.851 49.4301C163.471 49.4301 162.282 49.9513 161.277 51C160.272 52.0487 159.604 53.536 159.261 55.4619C159.032 56.7521 159.025 57.8199 159.235 58.678C159.445 59.536 159.846 60.1716 160.437 60.5911C161.029 61.0106 161.767 61.2267 162.657 61.2267C163.624 61.2267 164.482 60.9852 165.233 60.5085C165.983 60.0318 166.613 59.3263 167.115 58.3983C167.338 57.9597 167.573 57.6038 167.834 57.3305C168.095 57.0572 168.457 56.9174 168.922 56.9174C169.322 56.9174 169.64 57.0572 169.876 57.3369C170.124 57.6229 170.206 57.9661 170.13 58.3856Z" fill="#5BA646"/>
<path d="M185.426 49.8178H181.762L179.638 61.8559C179.517 62.5487 179.269 63.0635 178.9 63.4004C178.532 63.7373 178.105 63.9025 177.616 63.9025C177.12 63.9025 176.744 63.7309 176.49 63.3941C176.236 63.0572 176.172 62.5424 176.293 61.8559L178.417 49.8178H174.754C174.181 49.8178 173.774 49.6907 173.545 49.4364C173.31 49.1822 173.227 48.8517 173.304 48.4385C173.38 48.0063 173.583 47.6695 173.921 47.4216C174.258 47.1737 174.696 47.0466 175.25 47.0466H185.922C186.501 47.0466 186.914 47.1737 187.149 47.428C187.385 47.6822 187.467 48.0191 187.397 48.4322C187.327 48.8453 187.124 49.1822 186.793 49.4301C186.45 49.6907 185.998 49.8178 185.426 49.8178Z" fill="#5BA646"/>
<path d="M70.049 28.2203L35.1835 15.7309L24.4224 28.5826C22.2409 31.1758 22.2409 34.0106 24.416 34.7797L35.1962 38.6949L71.4928 31.8559C71.9952 30.1716 71.5055 28.7161 70.049 28.2203Z" fill="#5BA646"/>
<path d="M42.6692 10.2966C40.7676 10.6144 38.7451 11.8411 37.2505 13.5191L64.147 22.875L66.869 22.3347C70.7232 21.5975 74.7491 19.2013 77.5348 15.839L90.8081 0L42.6692 10.2966ZM23.9327 43.5064C20.0722 44.2246 16.0526 46.6843 13.2797 49.983L0 65.822L49.9069 56.4597C51.9103 56.0847 54.0727 54.7945 55.5737 52.9513L70.3289 34.8051C70.3352 34.7733 70.3543 34.7733 70.3543 34.7733L37.931 40.8623L23.9327 43.5064Z" fill="#18355F"/>
<path d="M102.835 2.05296L83.0998 32.4534H92.309L97.1172 24.572H108.794L109.634 32.4534H118.709L113.958 2.05296H102.835ZM99.6485 19.589L103.681 13.0487C104.762 11.2881 105.9 8.9428 106.918 7.08686H107.039C107.217 8.93644 107.459 11.3771 107.643 13.0487L108.432 19.589H99.6485ZM138.75 14.6314C135.322 13.1949 132.854 12.1081 132.854 10.3602C132.854 8.68856 134.959 7.15042 138.991 7.15042C142.356 7.09322 145.243 7.94491 146.573 8.49153L149.276 3.06992C147.527 2.35805 144.639 1.54449 139.71 1.54449C130.87 1.54449 123.708 5.28813 123.708 11.428C123.708 15.4068 127.798 17.7585 132.129 19.5C135.862 20.9555 137.599 22.0678 137.599 23.8093C137.599 26.1992 134.539 27.3559 131.169 27.3559C127.435 27.3559 124.007 26.5042 121.603 25.4174L118.716 30.7373C120.649 31.8305 124.675 32.8983 130.335 32.8983C139.354 32.8983 146.814 29.4216 146.814 22.6525C146.808 19.0614 143.685 16.5572 138.75 14.6314ZM231.008 13.0996C229.869 17.5614 229.329 20.8983 229.151 24.0191H228.966C228.006 20.6886 226.912 17.5169 225.284 13.6462L219.942 2.05296H209.778L202.083 32.4534H210.134L212.793 21.8072C213.995 17.0212 214.955 12.6864 215.445 9.75636L215.623 9.69915C216.704 13.4492 217.785 16.1886 219.598 20.3072L225.252 32.4534H234.22L241.845 2.05296H233.794L231.008 13.0996ZM243.83 2.05296L242.316 7.74788H253.026L246.825 32.4534H255.5L261.689 7.74788H272.52L273.957 2.05296H243.83ZM165.716 14.6314C162.282 13.1949 159.82 12.1081 159.82 10.3602C159.82 8.68856 161.926 7.15042 165.951 7.15042C169.322 7.09322 172.21 7.94491 173.526 8.49153L176.229 3.06992C174.487 2.35805 171.599 1.54449 166.67 1.54449C157.823 1.54449 150.662 5.28813 150.662 11.428C150.662 15.4068 154.758 17.7585 159.089 19.5C162.822 20.9555 164.571 22.0678 164.571 23.8093C164.571 26.1992 161.506 27.3559 158.129 27.3559C154.395 27.3559 150.974 26.5042 148.57 25.4174L145.676 30.7373C147.603 31.8305 151.629 32.8983 157.283 32.8983C166.32 32.8983 173.781 29.4216 173.781 22.6525C173.787 19.0614 170.645 16.5572 165.716 14.6314ZM189.019 7.58263H204.302L205.746 2.05296H181.75L174.048 32.4534H198.89L200.276 26.8983H184.103L185.96 19.5381H200.391L201.784 14.0911H187.347L189.019 7.58263Z" fill="#18355F"/>
<path d="M202.674 57.1653H199.596L198.769 61.8559C198.648 62.5233 198.4 63.0381 198.025 63.3814C197.65 63.7309 197.217 63.9025 196.734 63.9025C196.231 63.9025 195.85 63.7309 195.602 63.3877C195.354 63.0445 195.29 62.5424 195.405 61.8814L197.656 49.1123C197.783 48.375 198.05 47.8475 198.445 47.5297C198.839 47.2119 199.405 47.053 200.143 47.053H204.449C205.721 47.053 206.687 47.1483 207.336 47.3453C207.978 47.536 208.513 47.8475 208.926 48.286C209.346 48.7246 209.626 49.2585 209.766 49.8877C209.905 50.5169 209.912 51.2352 209.772 52.0233C209.473 53.714 208.729 54.9915 207.533 55.8623C206.357 56.7267 204.728 57.1653 202.674 57.1653ZM203.202 49.5699H200.938L200.047 54.6356H202.312C203.1 54.6356 203.781 54.553 204.34 54.3877C204.9 54.2225 205.352 53.9492 205.701 53.5742C206.051 53.1992 206.274 52.7034 206.382 52.0932C206.509 51.3623 206.401 50.7648 206.051 50.3072C205.644 49.8114 204.697 49.5699 203.202 49.5699Z" fill="url(#paint0_linear_114_173)"/>
<path d="M216.45 48.8008L214.319 60.858H221.124C221.665 60.858 222.059 60.9915 222.307 61.2521C222.549 61.5127 222.638 61.8496 222.568 62.2436C222.498 62.6504 222.295 62.9809 221.964 63.2352C221.633 63.4894 221.194 63.6165 220.641 63.6165H212.532C211.801 63.6165 211.305 63.4576 211.038 63.1335C210.77 62.8093 210.707 62.2881 210.834 61.5636L213.085 48.8072C213.206 48.1271 213.448 47.6186 213.81 47.2818C214.173 46.9449 214.605 46.7733 215.102 46.7733C215.604 46.7733 215.986 46.9386 216.24 47.2754C216.507 47.6059 216.571 48.1144 216.45 48.8008Z" fill="url(#paint1_linear_114_173)"/>
<path d="M224.616 56.7648L226.022 48.7945C226.143 48.1144 226.384 47.6059 226.747 47.2691C227.109 46.9322 227.542 46.7606 228.038 46.7606C228.559 46.7606 228.941 46.9322 229.189 47.2691C229.437 47.6059 229.494 48.1144 229.38 48.7945L227.942 56.9428C227.777 57.8708 227.745 58.6462 227.841 59.2627C227.936 59.8856 228.222 60.3686 228.687 60.7119C229.151 61.0551 229.863 61.2267 230.811 61.2267C232.121 61.2267 233.113 60.8771 233.775 60.1843C234.442 59.4852 234.9 58.4301 235.148 57.0127L236.598 48.7945C236.719 48.1081 236.961 47.5996 237.323 47.2627C237.686 46.9258 238.118 46.7606 238.621 46.7606C239.123 46.7606 239.505 46.9258 239.759 47.2627C240.014 47.5996 240.077 48.1081 239.956 48.7945L238.551 56.7648C238.322 58.0614 238.004 59.1419 237.597 60.0064C237.19 60.8708 236.579 61.6335 235.765 62.2881C235.066 62.8475 234.29 63.2542 233.444 63.5085C232.598 63.7627 231.644 63.8898 230.569 63.8898C229.297 63.8898 228.222 63.75 227.351 63.4767C226.48 63.2034 225.805 62.7775 225.328 62.1992C224.851 61.6208 224.553 60.8835 224.444 59.9873C224.336 59.0911 224.394 58.0169 224.616 56.7648Z" fill="url(#paint2_linear_114_173)"/>
<path d="M254.451 58.6462C254.273 59.6504 253.859 60.5466 253.198 61.3475C252.543 62.1483 251.672 62.7712 250.597 63.2225C249.522 63.6737 248.301 63.9025 246.94 63.9025C245.305 63.9025 244.008 63.5911 243.054 62.9746C242.38 62.5297 241.871 61.9386 241.527 61.1949C241.184 60.4513 241.076 59.733 241.203 59.0339C241.273 58.6271 241.476 58.2775 241.814 57.9915C242.144 57.6991 242.532 57.5593 242.971 57.5593C243.327 57.5593 243.607 57.6737 243.811 57.8962C244.014 58.125 244.167 58.4555 244.262 58.9004C244.383 59.428 244.529 59.8665 244.714 60.2225C244.898 60.5784 245.191 60.8708 245.591 61.0996C245.998 61.3284 246.558 61.4428 247.283 61.4428C248.275 61.4428 249.128 61.214 249.834 60.75C250.539 60.286 250.953 59.7076 251.074 59.0148C251.169 58.4619 251.08 58.0169 250.807 57.6737C250.533 57.3305 250.145 57.0699 249.643 56.8856C249.14 56.7076 248.466 56.5106 247.614 56.3072C246.469 56.0275 245.534 55.7034 244.796 55.3284C244.059 54.9534 243.512 54.4449 243.156 53.803C242.799 53.161 242.704 52.3602 242.869 51.4004C243.028 50.4915 243.423 49.678 244.046 48.9725C244.669 48.2669 245.483 47.7203 246.495 47.339C247.506 46.9576 248.644 46.7669 249.923 46.7669C250.94 46.7669 251.799 46.8941 252.498 47.1483C253.198 47.4025 253.751 47.733 254.171 48.1525C254.591 48.572 254.871 49.0106 255.011 49.4682C255.157 49.9258 255.189 50.3771 255.112 50.8157C255.042 51.2161 254.839 51.572 254.495 51.8962C254.158 52.214 253.777 52.3792 253.351 52.3792C252.969 52.3792 252.689 52.2839 252.524 52.0932C252.358 51.9025 252.199 51.5847 252.04 51.1525C251.85 50.5297 251.576 50.0402 251.214 49.6907C250.851 49.3411 250.209 49.1631 249.274 49.1631C248.409 49.1631 247.671 49.3538 247.073 49.7352C246.475 50.1165 246.126 50.5741 246.037 51.108C245.979 51.4386 246.018 51.7246 246.157 51.9661C246.297 52.2076 246.507 52.4174 246.793 52.589C247.08 52.7606 247.379 52.9004 247.684 52.9958C247.989 53.0911 248.498 53.2373 249.217 53.428C250.113 53.6441 250.915 53.8856 251.627 54.1525C252.339 54.4131 252.924 54.7373 253.389 55.1123C253.853 55.4873 254.184 55.964 254.381 56.5424C254.578 57.1017 254.604 57.8072 254.451 58.6462Z" fill="url(#paint3_linear_114_173)"/>
<path d="M265.346 31.7542C264.875 34.4174 264.315 35.8411 265.606 35.8411C266.147 35.8411 266.662 35.4025 266.757 34.8623L266.961 33.7119C267.692 29.5741 273.951 29.5741 273.219 33.7119C271.979 40.7352 272.125 40.3411 271.629 40.8305C270.535 41.911 270.974 43.5763 272.38 43.6271C273.855 43.6843 274.994 41.9555 274.256 40.8305C274.084 40.5636 274.021 40.2585 274.084 39.8771C274.122 39.661 275.56 31.5254 275.522 31.7479C275.827 30.0191 274.669 28.6208 272.946 28.6208H269.028C267.298 28.6271 265.651 30.0254 265.346 31.7542Z" fill="url(#paint4_linear_114_173)"/>
<path d="M279.713 36.839C277.048 36.839 275.681 36.5275 275.452 37.8178C275.356 38.3581 275.719 38.7966 276.259 38.7966H277.41C281.551 38.7966 280.451 45.0508 276.304 45.0508C269.276 45.0508 269.658 45.1271 269.238 44.7203C268.316 43.8178 266.522 44.5487 266.217 45.9597C265.899 47.4407 267.476 48.2797 268.767 47.3453C269.073 47.1229 269.403 47.0085 269.778 47.0085C269.995 47.0085 278.136 47.0085 277.913 47.0085C279.643 47.0085 281.29 45.6102 281.595 43.8814L282.289 39.9661C282.594 38.2436 281.443 36.839 279.713 36.839Z" fill="url(#paint5_linear_114_173)"/>
<path d="M271.935 52.0932C272.405 49.4301 272.965 48.0064 271.674 48.0064C271.133 48.0064 270.618 48.4449 270.523 48.9852L270.319 50.1356C269.588 54.2733 263.329 54.2733 264.061 50.1356C265.301 43.1123 265.155 43.5064 265.651 43.017C266.745 41.9364 266.306 40.2712 264.9 40.2203C263.425 40.1631 262.286 41.892 263.024 43.017C263.196 43.2839 263.259 43.589 263.196 43.9703C263.158 44.1864 261.72 52.322 261.759 52.0996C261.453 53.8284 262.611 55.2267 264.334 55.2267H268.252C269.976 55.2267 271.629 53.822 271.935 52.0932Z" fill="url(#paint6_linear_114_173)"/>
<path d="M257.561 47.0085C260.226 47.0085 261.593 47.3199 261.822 46.0297C261.918 45.4894 261.555 45.0508 261.014 45.0508H259.863C255.723 45.0508 256.823 38.7966 260.97 38.7966C267.998 38.7966 267.616 38.7203 268.036 39.1271C268.958 40.0297 270.752 39.2987 271.057 37.8877C271.375 36.4068 269.798 35.5678 268.506 36.5021C268.201 36.7246 267.87 36.839 267.495 36.839C267.279 36.839 259.138 36.839 259.361 36.839C257.631 36.839 255.984 38.2373 255.678 39.9661L254.985 43.8814C254.68 45.6102 255.837 47.0085 257.561 47.0085Z" fill="url(#paint7_linear_114_173)"/>
<defs>
<linearGradient id="paint0_linear_114_173" x1="195.351" y1="55.4735" x2="209.892" y2="55.4735" gradientUnits="userSpaceOnUse">
<stop stop-color="#FFBB57"/>
<stop offset="0.0272" stop-color="#FFBD49"/>
<stop offset="0.0877" stop-color="#FEC22E"/>
<stop offset="0.1496" stop-color="#FDC51B"/>
<stop offset="0.2132" stop-color="#FDC610"/>
<stop offset="0.2809" stop-color="#FDC70C"/>
<stop offset="0.6685" stop-color="#BF9A00"/>
<stop offset="0.8876" stop-color="#E99C00"/>
<stop offset="1" stop-color="#946700"/>
</linearGradient>
<linearGradient id="paint1_linear_114_173" x1="210.78" y1="55.191" x2="222.596" y2="55.191" gradientUnits="userSpaceOnUse">
<stop stop-color="#FFBB57"/>
<stop offset="0.0272" stop-color="#FFBD49"/>
<stop offset="0.0877" stop-color="#FEC22E"/>
<stop offset="0.1496" stop-color="#FDC51B"/>
<stop offset="0.2132" stop-color="#FDC610"/>
<stop offset="0.2809" stop-color="#FDC70C"/>
<stop offset="0.6685" stop-color="#BF9A00"/>
<stop offset="0.8876" stop-color="#E99C00"/>
<stop offset="1" stop-color="#946700"/>
</linearGradient>
<linearGradient id="paint2_linear_114_173" x1="224.394" y1="55.3322" x2="240.021" y2="55.3322" gradientUnits="userSpaceOnUse">
<stop stop-color="#FFBB57"/>
<stop offset="0.0272" stop-color="#FFBD49"/>
<stop offset="0.0877" stop-color="#FEC22E"/>
<stop offset="0.1496" stop-color="#FDC51B"/>
<stop offset="0.2132" stop-color="#FDC610"/>
<stop offset="0.2809" stop-color="#FDC70C"/>
<stop offset="0.6685" stop-color="#BF9A00"/>
<stop offset="0.8876" stop-color="#E99C00"/>
<stop offset="1" stop-color="#946700"/>
</linearGradient>
<linearGradient id="paint3_linear_114_173" x1="241.162" y1="55.3322" x2="255.151" y2="55.3322" gradientUnits="userSpaceOnUse">
<stop stop-color="#FFBB57"/>
<stop offset="0.0272" stop-color="#FFBD49"/>
<stop offset="0.0877" stop-color="#FEC22E"/>
<stop offset="0.1496" stop-color="#FDC51B"/>
<stop offset="0.2132" stop-color="#FDC610"/>
<stop offset="0.2809" stop-color="#FDC70C"/>
<stop offset="0.6685" stop-color="#BF9A00"/>
<stop offset="0.8876" stop-color="#E99C00"/>
<stop offset="1" stop-color="#946700"/>
</linearGradient>
<linearGradient id="paint4_linear_114_173" x1="264.541" y1="36.1305" x2="275.15" y2="38.0021" gradientUnits="userSpaceOnUse">
<stop stop-color="#FFBB57"/>
<stop offset="0.0272" stop-color="#FFBD49"/>
<stop offset="0.0877" stop-color="#FEC22E"/>
<stop offset="0.1496" stop-color="#FDC51B"/>
<stop offset="0.2132" stop-color="#FDC610"/>
<stop offset="0.2809" stop-color="#FDC70C"/>
<stop offset="0.6685" stop-color="#BF9A00"/>
<stop offset="0.8876" stop-color="#E99C00"/>
<stop offset="1" stop-color="#946700"/>
</linearGradient>
<linearGradient id="paint5_linear_114_173" x1="266.869" y1="42.2746" x2="281.432" y2="44.8437" gradientUnits="userSpaceOnUse">
<stop stop-color="#FFBB57"/>
<stop offset="0.0272" stop-color="#FFBD49"/>
<stop offset="0.0877" stop-color="#FEC22E"/>
<stop offset="0.1496" stop-color="#FDC51B"/>
<stop offset="0.2132" stop-color="#FDC610"/>
<stop offset="0.2809" stop-color="#FDC70C"/>
<stop offset="0.6685" stop-color="#BF9A00"/>
<stop offset="0.8876" stop-color="#E99C00"/>
<stop offset="1" stop-color="#946700"/>
</linearGradient>
<linearGradient id="paint6_linear_114_173" x1="261.798" y1="47.7208" x2="272.408" y2="49.5924" gradientUnits="userSpaceOnUse">
<stop stop-color="#FFBB57"/>
<stop offset="0.0272" stop-color="#FFBD49"/>
<stop offset="0.0877" stop-color="#FEC22E"/>
<stop offset="0.1496" stop-color="#FDC51B"/>
<stop offset="0.2132" stop-color="#FDC610"/>
<stop offset="0.2809" stop-color="#FDC70C"/>
<stop offset="0.6685" stop-color="#BF9A00"/>
<stop offset="0.8876" stop-color="#E99C00"/>
<stop offset="1" stop-color="#946700"/>
</linearGradient>
<linearGradient id="paint7_linear_114_173" x1="255.394" y1="41.5768" x2="269.957" y2="44.1459" gradientUnits="userSpaceOnUse">
<stop stop-color="#FFBB57"/>
<stop offset="0.0272" stop-color="#FFBD49"/>
<stop offset="0.0877" stop-color="#FEC22E"/>
<stop offset="0.1496" stop-color="#FDC51B"/>
<stop offset="0.2132" stop-color="#FDC610"/>
<stop offset="0.2809" stop-color="#FDC70C"/>
<stop offset="0.6685" stop-color="#BF9A00"/>
<stop offset="0.8876" stop-color="#E99C00"/>
<stop offset="1" stop-color="#946700"/>
</linearGradient>
</defs>
</svg>
